<svg xmlns="http://www.w3.org/2000/svg" version="1.1" xmlns:xlink="http://www.w3.org/1999/xlink" xmlns:svgjs="http://svgjs.com/svgjs" width="512" height="512" x="0" y="0" viewBox="0 0 24 24" style="enable-background:new 0 0 512 512" xml:space="preserve">
  <g>
    <path id="store" d="m20 13.08v4.92a2.652 2.652 0 0 1 -3 3h-2.67a.3.3 0 0 1 -.3-.3v-3.078a2.087 2.087 0 0 0 -1.658-2.093 2.005 2.005 0 0 0 -2.342 1.971v3.2a.3.3 0 0 1 -.3.3h-2.73a2.652 2.652 0 0 1 -3-3v-4.92a4.429 4.429 0 0 0 1.9.42 5.006 5.006 0 0 0 3.07-1.06 4.875 4.875 0 0 0 6.07 0 5.006 5.006 0 0 0 3.07 1.06 4.417 4.417 0 0 0 1.89-.42zm-12.5-10.08c-2.5 0-2.883.82-3.295 2.038l-1.04 3.073a2.924 2.924 0 0 0 1.2 3.481 3.058 3.058 0 0 0 1.535.408 3.281 3.281 0 0 0 3.055-2 3.318 3.318 0 0 0 6.09 0 3.281 3.281 0 0 0 3.055 2 3.058 3.058 0 0 0 1.536-.408 2.924 2.924 0 0 0 1.2-3.481l-1.036-3.073c-.417-1.218-.8-2.038-3.3-2.038z" fill="#a4ff65" data-original="#a4ff65" class=""></path>
  </g>
</svg>